<svg width="1367" height="644" viewBox="0 0 1367 644" fill="none" xmlns="http://www.w3.org/2000/svg">
<path d="M47.6992 468.986C47.6992 479.719 50.1526 484.319 54.7526 487.079C54.7526 487.693 54.7526 489.226 54.7526 489.226H17.3386C17.3386 489.226 17.3386 487.693 17.3386 487.079C22.2454 484.319 24.3921 479.719 24.3921 468.986V314.73C24.3921 294.796 20.4053 294.489 1.69834 303.076L0.77832 301.236L47.6992 274.555V468.986ZM215.7 453.039C216.62 453.039 218.154 453.039 218.154 453.039L213.247 489.226H76.1646V487.079C125.232 449.665 189.327 383.731 185.647 321.783C184.113 296.636 173.38 275.169 147.313 274.555C125.845 274.249 101.005 297.556 94.8716 338.957H92.7249L80.1513 303.689C98.5517 287.742 123.699 273.022 146.086 271.489C178.9 269.342 204.66 288.662 210.487 315.65C221.834 369.317 174.606 410.718 104.992 466.532H191.167C204.047 466.532 211.407 463.159 215.7 453.039Z" fill="#F3E7C8"/>
<path d="M664.042 453.039C664.962 453.039 666.496 453.039 666.496 453.039L661.589 489.226H524.506V487.079C573.574 449.665 637.668 383.731 633.988 321.783C632.455 296.636 621.721 275.169 595.654 274.555C574.187 274.249 549.347 297.556 543.213 338.957H541.067L528.493 303.689C546.893 287.742 572.041 273.022 594.428 271.489C627.242 269.342 653.002 288.662 658.829 315.65C670.176 369.317 622.948 410.718 553.334 466.532H639.508C652.389 466.532 659.749 463.159 664.042 453.039ZM715.391 367.171C774.885 336.81 842.966 368.091 836.833 426.052C833.153 459.479 804.632 491.066 757.098 491.066C727.964 491.066 702.51 477.573 685.03 460.399L697.604 422.065H699.75C705.577 463.159 729.804 486.773 755.565 487.693C795.432 489.226 811.379 456.105 812.912 427.585C815.672 375.451 776.725 344.17 713.857 369.931C713.244 368.704 712.937 367.784 712.937 367.784L728.884 274.555H805.552C818.126 274.555 825.793 271.489 830.086 261.062C830.699 261.062 832.233 261.062 832.233 261.062L827.326 297.556H727.351L715.391 367.171Z" fill="#F3E7C8"/>
<path d="M1203.1 440.772H1171.21V468.986C1171.21 479.719 1173.36 484.319 1178.26 487.079C1178.26 487.693 1178.26 489.226 1178.26 489.226H1140.85C1140.85 489.226 1140.85 487.693 1140.85 487.079C1145.45 484.319 1147.9 479.719 1147.9 468.986V440.772H1042.1V438.625L1147.9 301.543V274.555H1171.21V438.625H1203.1V440.772ZM1045.17 438.625H1147.9V304.916L1045.17 438.625Z" fill="#F3E7C8"/>
<path d="M1357.05 246.546H1325.16V274.76C1325.16 285.493 1327.31 290.093 1332.21 292.853C1332.21 293.467 1332.21 295 1332.21 295H1294.8C1294.8 295 1294.8 293.467 1294.8 292.853C1299.4 290.093 1301.85 285.493 1301.85 274.76V246.546H1196.05V244.399L1301.85 107.317V80.3294H1325.16V244.399H1357.05V246.546ZM1199.12 244.399H1301.85V110.69L1199.12 244.399Z" fill="url(#paint0_linear_1_365)"/>
<path d="M1232.25 442.134C1291.74 411.774 1359.82 443.054 1353.69 501.015C1350.01 534.443 1321.49 566.03 1273.96 566.03C1244.82 566.03 1219.37 552.536 1201.89 535.363L1214.46 497.029H1216.61C1222.44 538.123 1246.66 561.737 1272.42 562.657C1312.29 564.19 1328.24 531.069 1329.77 502.549C1332.53 450.415 1293.58 419.134 1230.72 444.894C1230.1 443.668 1229.8 442.748 1229.8 442.748L1245.74 349.519H1322.41C1334.98 349.519 1342.65 346.453 1346.94 336.026C1347.56 336.026 1349.09 336.026 1349.09 336.026L1344.18 372.52H1244.21L1232.25 442.134Z" fill="url(#paint1_linear_1_365)"/>
<path d="M92.3384 581.454H87.0909V545.676H92.3384V560.941H109.512V545.676H114.76V581.454H109.512V565.235H92.3384V581.454ZM152.138 576.731C148.862 580.198 144.584 581.931 139.305 581.931C134.026 581.931 129.748 580.198 126.472 576.731C123.197 573.233 121.559 568.796 121.559 563.422C121.559 558.111 123.197 553.754 126.472 550.351C129.748 546.916 134.026 545.199 139.305 545.199C144.584 545.199 148.862 546.916 152.138 550.351C155.413 553.754 157.051 558.111 157.051 563.422C157.051 568.796 155.413 573.233 152.138 576.731ZM130.193 573.678C132.483 576.318 135.52 577.638 139.305 577.638C143.09 577.638 146.111 576.318 148.369 573.678C150.659 571.039 151.804 567.62 151.804 563.422C151.804 559.351 150.659 556.012 148.369 553.404C146.111 550.796 143.09 549.492 139.305 549.492C135.52 549.492 132.483 550.796 130.193 553.404C127.935 556.012 126.806 559.351 126.806 563.422C126.806 567.62 127.935 571.039 130.193 573.678ZM187.288 578.067C184.744 580.643 181.421 581.931 177.318 581.931C173.216 581.931 169.876 580.643 167.3 578.067C164.756 575.491 163.484 572.327 163.484 568.574V545.676H168.731V568.622C168.731 571.166 169.51 573.313 171.069 575.062C172.627 576.779 174.71 577.638 177.318 577.638C180.053 577.638 182.248 576.779 183.901 575.062C185.555 573.313 186.382 571.166 186.382 568.622V545.676H191.152V568.574C191.152 572.327 189.864 575.491 187.288 578.067ZM205.078 566.904V581.454H199.83V545.676H209.896C213.617 545.676 216.559 546.598 218.721 548.443C220.884 550.319 221.965 552.784 221.965 555.837C221.965 558.286 221.313 560.385 220.009 562.134C218.737 563.883 217.004 565.107 214.809 565.807L224.637 577.876V581.454H221.059L209.562 566.904H205.078ZM205.078 550.208V562.611H209.848C211.947 562.611 213.617 562.007 214.857 560.798C216.097 559.59 216.718 557.999 216.718 556.028C216.718 554.406 216.097 553.038 214.857 551.925C213.617 550.78 211.947 550.208 209.848 550.208H205.078ZM240.4 581.931C237.41 581.931 234.93 581.343 232.958 580.166C230.923 578.989 229.523 577.638 228.76 576.111V572.772H232.576C233.117 574.203 234.071 575.38 235.439 576.302C236.806 577.192 238.492 577.638 240.495 577.638C242.467 577.638 244.089 577.129 245.361 576.111C246.633 575.062 247.269 573.694 247.269 572.009C247.269 570.482 246.776 569.274 245.791 568.383C244.805 567.461 243.23 566.666 241.068 565.998L238.539 565.235C232.306 563.358 229.189 559.955 229.189 555.026C229.189 551.973 230.255 549.572 232.386 547.822C234.516 546.073 237.283 545.199 240.686 545.199C243.421 545.199 245.663 545.692 247.413 546.677C249.162 547.632 250.338 548.951 250.943 550.637V553.976H247.126C246.204 550.987 243.93 549.492 240.305 549.492C238.365 549.492 236.854 549.985 235.773 550.971C234.723 551.957 234.198 553.181 234.198 554.644C234.198 556.012 234.66 557.141 235.582 558.031C236.536 558.89 238.015 559.621 240.018 560.226L243.358 561.275C249.337 563.183 252.326 566.761 252.326 572.009C252.326 575.03 251.213 577.447 248.987 579.26C246.761 581.041 243.898 581.931 240.4 581.931Z" fill="#F3E7C8"/>
<path d="M596.819 572.152H593.242L582.699 552.068V581.454H577.928V545.676H584.512L595.436 565.807L606.074 545.676H612.61V581.454H607.362V552.068L596.819 572.152ZM626.921 581.454H621.673V545.676H626.921V581.454ZM640.746 581.454H635.975V545.676H640.746L658.873 573.01V545.676H663.644V581.454H658.873L640.746 554.501V581.454ZM696.108 578.067C693.564 580.643 690.241 581.931 686.138 581.931C682.035 581.931 678.696 580.643 676.12 578.067C673.576 575.491 672.304 572.327 672.304 568.574V545.676H677.551V568.622C677.551 571.166 678.33 573.313 679.889 575.062C681.447 576.779 683.53 577.638 686.138 577.638C688.873 577.638 691.068 576.779 692.721 575.062C694.375 573.313 695.202 571.166 695.202 568.622V545.676H699.972V568.574C699.972 572.327 698.684 575.491 696.108 578.067ZM721.721 581.454H716.474V549.969H705.025V545.676H733.17V549.969H721.721V581.454ZM759.166 581.454H738.605V545.676H759.166V549.969H743.853V560.941H757.735V565.235H743.853V577.161H759.166V581.454ZM775.914 581.931C772.924 581.931 770.444 581.343 768.472 580.166C766.437 578.989 765.037 577.638 764.274 576.111V572.772H768.09C768.631 574.203 769.585 575.38 770.953 576.302C772.32 577.192 774.006 577.638 776.009 577.638C777.981 577.638 779.603 577.129 780.875 576.111C782.147 575.062 782.783 573.694 782.783 572.009C782.783 570.482 782.29 569.274 781.305 568.383C780.319 567.461 778.744 566.666 776.582 565.998L774.053 565.235C767.82 563.358 764.703 559.955 764.703 555.026C764.703 551.973 765.769 549.572 767.9 547.822C770.03 546.073 772.797 545.199 776.2 545.199C778.935 545.199 781.177 545.692 782.927 546.677C784.676 547.632 785.852 548.951 786.457 550.637V553.976H782.64C781.718 550.987 779.444 549.492 775.819 549.492C773.879 549.492 772.368 549.985 771.287 550.971C770.237 551.957 769.712 553.181 769.712 554.644C769.712 556.012 770.174 557.141 771.096 558.031C772.05 558.89 773.529 559.621 775.532 560.226L778.872 561.275C784.851 563.183 787.84 566.761 787.84 572.009C787.84 575.03 786.727 577.447 784.501 579.26C782.275 581.041 779.412 581.931 775.914 581.931Z" fill="#F3E7C8"/>
<path d="M1097.1 581.931C1094.11 581.931 1091.63 581.343 1089.66 580.166C1087.62 578.989 1086.22 577.638 1085.46 576.111V572.772H1089.27C1089.81 574.203 1090.77 575.38 1092.14 576.302C1093.5 577.192 1095.19 577.638 1097.19 577.638C1099.16 577.638 1100.79 577.129 1102.06 576.111C1103.33 575.062 1103.97 573.694 1103.97 572.009C1103.97 570.482 1103.47 569.274 1102.49 568.383C1101.5 567.461 1099.93 566.666 1097.77 565.998L1095.24 565.235C1089 563.358 1085.89 559.955 1085.89 555.026C1085.89 551.973 1086.95 549.572 1089.08 547.822C1091.21 546.073 1093.98 545.199 1097.38 545.199C1100.12 545.199 1102.36 545.692 1104.11 546.677C1105.86 547.632 1107.04 548.951 1107.64 550.637V553.976H1103.82C1102.9 550.987 1100.63 549.492 1097 549.492C1095.06 549.492 1093.55 549.985 1092.47 550.971C1091.42 551.957 1090.9 553.181 1090.9 554.644C1090.9 556.012 1091.36 557.141 1092.28 558.031C1093.23 558.89 1094.71 559.621 1096.72 560.226L1100.05 561.275C1106.03 563.183 1109.02 566.761 1109.02 572.009C1109.02 575.03 1107.91 577.447 1105.68 579.26C1103.46 581.041 1100.6 581.931 1097.1 581.931ZM1136.35 581.454H1115.79V545.676H1136.35V549.969H1121.03V560.941H1134.92V565.235H1121.03V577.161H1136.35V581.454ZM1158.35 581.931C1152.79 581.931 1148.46 580.182 1145.38 576.684C1142.29 573.154 1140.75 568.733 1140.75 563.422C1140.75 558.238 1142.37 553.913 1145.62 550.446C1148.89 546.948 1153.14 545.199 1158.35 545.199C1160.26 545.199 1162.03 545.405 1163.65 545.819C1165.27 546.2 1166.54 546.677 1167.46 547.25C1168.39 547.791 1169.17 548.347 1169.8 548.92C1170.44 549.492 1170.87 549.969 1171.09 550.351L1171.47 550.971V554.31H1167.66C1167.66 554.247 1167.58 554.072 1167.42 553.785C1167.29 553.499 1167 553.118 1166.56 552.641C1166.14 552.132 1165.62 551.655 1164.98 551.209C1164.35 550.732 1163.46 550.335 1162.31 550.017C1161.17 549.667 1159.9 549.492 1158.5 549.492C1154.68 549.492 1151.64 550.812 1149.38 553.452C1147.13 556.059 1146 559.383 1146 563.422C1146 567.461 1147.13 570.832 1149.38 573.535C1151.64 576.238 1154.68 577.59 1158.5 577.59C1159.86 577.59 1161.12 577.415 1162.26 577.065C1163.44 576.715 1164.35 576.302 1164.98 575.825C1165.65 575.316 1166.21 574.823 1166.65 574.346C1167.13 573.869 1167.46 573.456 1167.66 573.106L1167.89 572.581H1171.71V575.92L1171.52 576.207C1171.39 576.429 1171.15 576.731 1170.8 577.113C1170.49 577.463 1170.1 577.86 1169.66 578.306C1169.21 578.719 1168.61 579.148 1167.85 579.594C1167.11 580.007 1166.3 580.389 1165.41 580.739C1164.55 581.088 1163.51 581.375 1162.26 581.597C1161.02 581.82 1159.72 581.931 1158.35 581.931ZM1206.18 576.731C1202.9 580.198 1198.62 581.931 1193.34 581.931C1188.06 581.931 1183.79 580.198 1180.51 576.731C1177.23 573.233 1175.6 568.796 1175.6 563.422C1175.6 558.111 1177.23 553.754 1180.51 550.351C1183.79 546.916 1188.06 545.199 1193.34 545.199C1198.62 545.199 1202.9 546.916 1206.18 550.351C1209.45 553.754 1211.09 558.111 1211.09 563.422C1211.09 568.796 1209.45 573.233 1206.18 576.731ZM1184.23 573.678C1186.52 576.318 1189.56 577.638 1193.34 577.638C1197.13 577.638 1200.15 576.318 1202.41 573.678C1204.7 571.039 1205.84 567.62 1205.84 563.422C1205.84 559.351 1204.7 556.012 1202.41 553.404C1200.15 550.796 1197.13 549.492 1193.34 549.492C1189.56 549.492 1186.52 550.796 1184.23 553.404C1181.97 556.012 1180.84 559.351 1180.84 563.422C1180.84 567.62 1181.97 571.039 1184.23 573.678ZM1222.67 581.454H1217.9V545.676H1222.67L1240.8 573.01V545.676H1245.57V581.454H1240.8L1222.67 554.501V581.454ZM1265.73 581.454H1254.61V545.676H1265.73C1271.17 545.676 1275.54 547.377 1278.85 550.78C1282.15 554.183 1283.81 558.397 1283.81 563.422C1283.81 568.51 1282.15 572.788 1278.85 576.254C1275.54 579.721 1271.17 581.454 1265.73 581.454ZM1259.86 549.969V577.161H1265.59C1269.47 577.161 1272.6 575.841 1274.98 573.201C1277.37 570.562 1278.56 567.302 1278.56 563.422C1278.56 559.637 1277.37 556.457 1274.98 553.881C1272.6 551.273 1269.47 549.969 1265.59 549.969H1259.86ZM1300.21 581.931C1297.22 581.931 1294.74 581.343 1292.77 580.166C1290.74 578.989 1289.34 577.638 1288.57 576.111V572.772H1292.39C1292.93 574.203 1293.89 575.38 1295.25 576.302C1296.62 577.192 1298.31 577.638 1300.31 577.638C1302.28 577.638 1303.9 577.129 1305.18 576.111C1306.45 575.062 1307.08 573.694 1307.08 572.009C1307.08 570.482 1306.59 569.274 1305.61 568.383C1304.62 567.461 1303.04 566.666 1300.88 565.998L1298.35 565.235C1292.12 563.358 1289 559.955 1289 555.026C1289 551.973 1290.07 549.572 1292.2 547.822C1294.33 546.073 1297.1 545.199 1300.5 545.199C1303.24 545.199 1305.48 545.692 1307.23 546.677C1308.98 547.632 1310.15 548.951 1310.76 550.637V553.976H1306.94C1306.02 550.987 1303.74 549.492 1300.12 549.492C1298.18 549.492 1296.67 549.985 1295.59 550.971C1294.54 551.957 1294.01 553.181 1294.01 554.644C1294.01 556.012 1294.47 557.141 1295.4 558.031C1296.35 558.89 1297.83 559.621 1299.83 560.226L1303.17 561.275C1309.15 563.183 1312.14 566.761 1312.14 572.009C1312.14 575.03 1311.03 577.447 1308.8 579.26C1306.58 581.041 1303.71 581.931 1300.21 581.931Z" fill="#F3E7C8"/>
<defs>
<linearGradient id="paint0_linear_1_365" x1="1274.67" y1="0" x2="1274.67" y2="374" gradientUnits="userSpaceOnUse">
<stop offset="0.26095" stop-color="#F3E7C8" stop-opacity="0"/>
<stop offset="0.834855" stop-color="#F3E7C8"/>
</linearGradient>
<linearGradient id="paint1_linear_1_365" x1="1279.19" y1="269.19" x2="1279.19" y2="643.19" gradientUnits="userSpaceOnUse">
<stop offset="0.178177" stop-color="#F3E7C8"/>
<stop offset="0.737683" stop-color="#F3E7C8" stop-opacity="0"/>
</linearGradient>
</defs>
</svg>
