<svg width="626" height="228" viewBox="0 0 626 228" fill="none" xmlns="http://www.w3.org/2000/svg">
<path d="M273.551 75.7969C273.44 75.7969 273.329 75.6857 273.218 75.4078C272.94 74.6853 272.829 73.8516 272.829 72.9623C272.829 61.4573 291.448 35.0012 296.506 27.4423C290.503 26.3307 283.5 24.9412 276.997 24.9412C271.94 24.9412 267.16 25.7749 263.38 28.1648L263.102 28.276C262.936 28.276 262.88 28.1648 262.88 28.0537C262.88 27.9425 262.991 27.7758 263.158 27.6646C267.326 25.0524 272.551 24.2187 278.053 24.2187C284.445 24.2187 291.226 25.3858 297.173 26.4419C299.174 23.5517 303.509 17.6602 305.788 14.7145C306.01 14.4922 306.288 14.381 306.566 14.381C307.011 14.381 307.455 14.6589 307.455 14.9924C307.455 15.1035 307.4 15.2703 307.288 15.3814C304.676 18.8274 300.897 24.0519 299.118 26.8309C302.12 27.3311 305.677 28.1648 309.289 28.6095C314.681 21.9399 319.183 19.7167 322.128 19.7167C324.018 19.7167 325.352 20.606 325.908 21.8287C326.13 22.3289 326.241 22.8292 326.241 23.385C326.241 24.9968 325.296 26.7753 323.462 27.9425C321.239 29.3876 317.738 29.9434 313.902 29.9434C312.624 29.9434 311.346 29.8878 310.067 29.7767C303.509 38.336 296.395 49.7299 292.504 57.2332C293.671 56.066 302.231 47.8402 304.954 47.8402C305.399 47.8402 305.732 48.0625 305.788 48.6183C305.788 48.7294 304.509 52.2866 304.509 54.9544C304.509 56.5662 304.954 57.8446 306.344 57.9557H306.622C311.012 57.9557 318.349 49.6743 322.629 48.1736H322.684C322.906 48.1736 323.018 48.2848 323.018 48.396C323.018 48.5071 322.962 48.5627 322.795 48.6183C318.905 49.8966 310.846 58.9006 306.01 58.9006C305.677 58.9006 305.343 58.9006 305.065 58.7894C303.453 58.2892 302.953 56.066 302.953 53.8428C302.953 52.0087 303.287 50.1745 303.62 49.1741C299.285 51.1194 291.782 59.901 290.892 59.901H290.837C290.726 59.8454 290.67 59.7343 290.67 59.4564C290.67 57.2332 296.395 46.673 302.953 37.1688C304.843 34.3898 306.622 31.9443 308.456 29.6099C304.621 29.0541 301.064 28.3872 298.396 27.8314C293.004 35.3902 273.44 63.2358 273.44 73.2402C273.44 74.0183 273.551 74.6297 273.774 75.1855L273.829 75.4078C273.829 75.6302 273.718 75.7969 273.551 75.7969ZM314.292 28.9985C322.184 28.9985 325.408 25.8305 325.408 23.385C325.408 21.9399 324.24 20.7171 322.239 20.7171C319.572 20.7171 315.514 22.7736 310.79 28.8318C312.068 28.943 313.18 28.9985 314.292 28.9985ZM322.849 57.7334C322.237 57.7334 321.682 57.6222 321.181 57.3999C320.014 56.8997 319.569 55.7881 319.569 54.5098C319.569 53.2314 320.014 51.8975 320.625 50.7859C322.849 46.8397 325.572 45.617 327.295 45.617C328.296 45.617 328.962 46.006 328.962 46.5618C328.962 47.9513 326.517 50.2301 321.959 51.1194C321.237 52.5645 320.959 53.6761 320.959 54.5098C320.959 56.066 321.904 56.733 323.182 56.7885H323.46C327.629 56.7885 335.187 52.0642 340.19 48.3404L340.468 48.2292C340.579 48.2292 340.69 48.3404 340.69 48.396C340.69 48.5071 340.634 48.6183 340.468 48.7294C335.076 52.8424 327.295 57.7334 322.849 57.7334ZM322.404 50.2857C325.016 50.0634 328.351 48.0069 328.351 46.9509C328.351 46.8397 328.296 46.7286 328.184 46.6174C328.073 46.5062 327.851 46.3951 327.573 46.3951C326.461 46.3951 324.294 47.4511 322.404 50.2857Z" fill="#1E3D31"/>
<path d="M97.2287 86.5196C95.3309 87.6582 94.4453 89.556 94.4453 93.9843V165.721C94.4453 170.149 95.3309 172.047 97.2287 173.186C97.2287 173.439 97.2287 174.071 97.2287 174.071H81.5402C81.5402 174.071 81.5402 173.439 81.5402 173.186C83.5645 172.047 84.4502 170.149 84.4502 165.721V122.072H40.4212V165.721C40.4212 170.149 41.3069 172.047 43.2047 173.186C43.2047 173.439 43.2047 174.071 43.2047 174.071H27.5162C27.5162 174.071 27.5162 173.439 27.5162 173.186C29.5405 172.047 30.4261 170.149 30.4261 165.721V93.9843C30.4261 89.556 29.5405 87.6582 27.5162 86.5196C27.5162 86.2665 27.5162 85.5074 27.5162 85.5074H43.2047C43.2047 85.5074 43.2047 86.2665 43.2047 86.5196C41.3069 87.6582 40.4212 89.556 40.4212 93.9843V121.186H84.4502V93.9843C84.4502 89.556 83.5645 87.6582 81.5402 86.5196C81.5402 86.2665 81.5402 85.5074 81.5402 85.5074H97.2287C97.2287 85.5074 97.2287 86.2665 97.2287 86.5196ZM120.111 165.721C120.111 170.149 120.997 172.047 123.021 173.186C123.021 173.439 123.021 174.071 123.021 174.071H107.333C107.333 174.071 107.333 173.439 107.333 173.186C109.23 172.047 110.116 170.149 110.116 165.721V122.957C110.116 118.529 109.736 117.264 107.333 116.884C107.333 116.631 107.333 115.999 107.333 115.999L119.225 113.215H120.111V165.721ZM114.797 102.967C111.508 102.967 108.851 100.31 108.851 97.0207C108.851 93.7312 111.508 91.0743 114.797 91.0743C118.087 91.0743 120.744 93.7312 120.744 97.0207C120.744 100.31 118.087 102.967 114.797 102.967ZM144.698 165.721C144.698 170.149 145.584 172.047 147.482 173.186C147.482 173.439 147.482 174.071 147.482 174.071H131.92C131.92 174.071 131.92 173.439 131.92 173.186C133.818 172.047 134.703 170.149 134.703 165.721V92.5925C134.703 88.1643 134.324 86.8991 131.92 86.5196C131.92 86.2665 131.92 85.5074 131.92 85.5074L143.813 82.8505H144.698V165.721ZM169.162 165.721C169.162 170.149 170.048 172.047 171.946 173.186C171.946 173.439 171.946 174.071 171.946 174.071H156.384C156.384 174.071 156.384 173.439 156.384 173.186C158.282 172.047 159.167 170.149 159.167 165.721V92.5925C159.167 88.1643 158.788 86.8991 156.384 86.5196C156.384 86.2665 156.384 85.5074 156.384 85.5074L168.277 82.8505H169.162V165.721ZM246.444 84.2422C256.186 84.2422 266.814 90.3152 274.279 96.1351L270.483 109.293H269.597C262.386 92.3395 253.15 85.887 243.155 85.887C230.629 85.887 223.418 92.9721 222.658 100.563C220.255 125.867 274.532 117.517 274.532 149.147C274.532 164.203 260.994 174.831 243.028 174.831C227.972 174.831 218.61 169.77 208.741 162.305L212.537 147.882H213.422C219.875 160.787 231.641 172.3 248.215 172.3C258.97 172.3 267.953 165.342 268.965 157.371C272.254 130.422 217.851 139.025 217.851 107.269C217.851 97.0207 226.074 84.2422 246.444 84.2422ZM328.186 151.677L328.819 151.93C326.415 163.823 321.101 174.831 307.816 174.831C296.556 174.831 289.597 167.492 289.597 152.563V114.227H282.133V113.215C292.887 113.215 293.773 101.955 293.773 95.882H303.768C303.768 105.624 294.152 112.836 286.561 113.215H314.522V114.227H299.592V154.461C299.592 165.468 302.629 173.945 313.383 172.553C321.733 171.414 325.909 161.419 328.186 151.677ZM383.935 173.186C383.935 173.439 383.935 174.071 383.935 174.071H371.156V156.359C367.867 167.492 360.908 174.831 348.762 174.831C338.388 174.831 328.266 169.896 326.621 160.787C324.47 147.882 332.188 140.291 341.93 136.242C338.641 128.904 342.563 113.215 359.516 113.215C370.018 113.215 381.151 118.782 381.151 134.344V165.721C381.151 170.149 382.037 172.047 383.935 173.186ZM358.378 114.48C346.991 114.48 339.4 125.488 343.195 135.736C350.027 133.205 357.619 132.32 363.565 132.32C366.475 132.32 369.005 132.826 371.156 133.458V132.573C371.156 122.957 367.361 114.48 358.378 114.48ZM351.799 173.186C362.806 172.553 368.626 163.191 371.156 154.081V134.597C370.524 134.344 367.487 133.458 363.565 133.458C349.774 133.458 331.049 140.291 336.49 162.558C338.135 169.39 345.473 173.565 351.799 173.186ZM436.296 151.677L436.929 151.93C434.525 163.823 429.211 174.831 415.927 174.831C404.666 174.831 397.708 167.492 397.708 152.563V114.227H390.243V113.215C400.997 113.215 401.883 101.955 401.883 95.882H411.878C411.878 105.624 402.262 112.836 394.671 113.215H422.632V114.227H407.703V154.461C407.703 165.468 410.739 173.945 421.494 172.553C429.844 171.414 434.019 161.419 436.296 151.677ZM450.99 165.721C450.99 170.149 451.876 172.047 453.9 173.186C453.9 173.439 453.9 174.071 453.9 174.071H438.212C438.212 174.071 438.212 173.439 438.212 173.186C440.11 172.047 440.995 170.149 440.995 165.721V122.957C440.995 118.529 440.616 117.264 438.212 116.884C438.212 116.631 438.212 115.999 438.212 115.999L450.105 113.215H450.99V165.721ZM445.677 102.967C442.387 102.967 439.73 100.31 439.73 97.0207C439.73 93.7312 442.387 91.0743 445.677 91.0743C448.966 91.0743 451.623 93.7312 451.623 97.0207C451.623 100.31 448.966 102.967 445.677 102.967ZM497.086 113.215C514.04 113.215 528.716 123.843 528.716 141.303C528.716 161.546 511.383 174.831 494.429 174.831C477.349 174.831 462.799 164.456 462.799 146.743C462.799 125.867 480.133 113.215 497.086 113.215ZM504.171 172.553C518.595 168.378 522.517 152.563 518.089 137.254C513.66 122.072 501.767 111.317 487.344 115.493C472.921 119.668 468.999 135.483 473.427 150.792C477.855 165.974 489.748 176.855 504.171 172.553ZM596.508 165.721C597.014 170.276 598.153 172.047 600.051 173.186C600.051 173.439 600.051 174.071 600.051 174.071H584.362C584.362 174.071 584.362 173.439 584.362 173.186C586.387 172.047 586.893 169.896 586.513 165.721C586.134 161.546 584.236 140.164 583.603 133.585C582.718 124.096 578.036 113.342 567.156 115.493C552.985 118.276 550.328 144.719 550.328 155.346V165.721C550.328 170.149 551.214 172.047 553.238 173.186C553.238 173.439 553.238 174.071 553.238 174.071H537.55C537.55 174.071 537.55 173.439 537.55 173.186C539.448 172.047 540.333 170.149 540.333 165.721V122.957C540.333 118.529 539.954 117.264 537.55 116.884C537.55 116.631 537.55 115.999 537.55 115.999L549.443 113.215H550.328V144.592C551.973 130.422 556.275 113.215 572.722 113.215C583.097 113.215 591.954 120.3 593.472 135.483C594.737 147.755 596.002 161.04 596.508 165.721Z" fill="#1E3D31"/>
<path d="M293.661 210.351H290.809V197.541L289.32 198.796H287.404V197.264L291.213 194.391H293.661V210.351ZM301.303 210.564H299.154V209.117C299.424 208.776 299.864 208.237 300.474 207.5C301.084 206.762 301.488 206.265 301.687 206.01C302.382 205.131 302.814 204.577 302.985 204.35C302.63 204.506 302.233 204.584 301.793 204.584C300.076 204.556 298.729 204.059 297.75 203.095C296.785 202.13 296.303 200.896 296.303 199.392C296.303 197.902 296.813 196.654 297.835 195.647C298.87 194.639 300.239 194.136 301.942 194.136C303.687 194.136 305.063 194.639 306.07 195.647C307.092 196.64 307.602 197.881 307.602 199.371C307.602 200.562 307.39 201.662 306.964 202.669C306.538 203.662 305.751 204.918 304.602 206.436C304.332 206.79 303.758 207.514 302.878 208.606C302.013 209.684 301.488 210.337 301.303 210.564ZM301.942 202.286C302.836 202.286 303.531 202.017 304.027 201.477C304.538 200.938 304.793 200.25 304.793 199.413C304.793 198.562 304.545 197.867 304.049 197.328C303.552 196.775 302.85 196.498 301.942 196.498C301.062 196.498 300.367 196.775 299.856 197.328C299.346 197.881 299.09 198.569 299.09 199.392C299.09 200.229 299.339 200.924 299.835 201.477C300.332 202.017 301.034 202.286 301.942 202.286ZM314.701 210.543C313.807 210.543 313.006 210.394 312.296 210.096C311.587 209.798 311.041 209.436 310.658 209.011C310.275 208.585 309.991 208.216 309.807 207.904C309.622 207.578 309.509 207.315 309.466 207.117V205.563H311.615C312.084 207.28 313.105 208.138 314.68 208.138C315.474 208.138 316.113 207.897 316.595 207.415C317.077 206.932 317.319 206.343 317.319 205.648C317.319 204.045 316.318 203.244 314.318 203.244H312.616V200.988H314.127C314.949 200.988 315.581 200.775 316.02 200.35C316.46 199.924 316.68 199.357 316.68 198.647C316.68 197.995 316.467 197.477 316.042 197.094C315.63 196.697 315.091 196.498 314.424 196.498C313.105 196.498 312.275 197.221 311.935 198.668C311.92 198.683 311.913 198.697 311.913 198.711V198.732H309.849V197.2C309.878 197.044 309.97 196.824 310.126 196.54C310.296 196.243 310.544 195.902 310.871 195.519C311.211 195.136 311.701 194.81 312.339 194.54C312.977 194.271 313.701 194.136 314.51 194.136C315.985 194.136 317.191 194.519 318.127 195.285C319.063 196.051 319.532 197.051 319.532 198.285C319.532 199.137 319.312 199.881 318.872 200.52C318.446 201.158 317.858 201.619 317.106 201.903C318.042 202.116 318.787 202.563 319.34 203.244C319.893 203.91 320.17 204.733 320.17 205.712C320.17 207.145 319.666 208.308 318.659 209.202C317.652 210.096 316.333 210.543 314.701 210.543ZM327.697 210.607C326.009 210.607 324.668 210.145 323.675 209.223C322.682 208.287 322.186 207.124 322.186 205.733C322.186 204.939 322.384 204.187 322.782 203.478C323.193 202.754 323.796 202.194 324.59 201.797C323.385 200.988 322.782 199.86 322.782 198.413C322.782 197.193 323.221 196.172 324.101 195.349C324.981 194.526 326.179 194.115 327.697 194.115C329.187 194.115 330.372 194.526 331.251 195.349C332.131 196.172 332.57 197.193 332.57 198.413C332.57 199.889 331.975 201.016 330.783 201.797C331.663 202.208 332.294 202.783 332.677 203.52C333.06 204.258 333.251 204.996 333.251 205.733C333.251 207.124 332.748 208.287 331.741 209.223C330.747 210.145 329.4 210.607 327.697 210.607ZM326.059 200.137C326.456 200.562 327.002 200.775 327.697 200.775C328.392 200.775 328.932 200.562 329.315 200.137C329.712 199.697 329.91 199.158 329.91 198.52C329.91 197.924 329.712 197.42 329.315 197.009C328.932 196.597 328.392 196.392 327.697 196.392C327.002 196.392 326.456 196.597 326.059 197.009C325.676 197.42 325.484 197.924 325.484 198.52C325.484 199.158 325.676 199.697 326.059 200.137ZM325.782 207.5C326.236 207.982 326.875 208.223 327.697 208.223C328.52 208.223 329.159 207.982 329.613 207.5C330.081 207.003 330.315 206.393 330.315 205.67C330.315 204.918 330.081 204.301 329.613 203.818C329.159 203.322 328.52 203.073 327.697 203.073C326.875 203.073 326.236 203.322 325.782 203.818C325.328 204.301 325.101 204.918 325.101 205.67C325.101 206.393 325.328 207.003 325.782 207.5Z" fill="#1E3D31"/>
</svg>
