<svg width="254" height="158" viewBox="0 0 254 158" fill="none" xmlns="http://www.w3.org/2000/svg">
<path d="M115.402 146.6H114.16V141.019L113.511 141.566H112.676V140.898L114.336 139.646H115.402V146.6ZM118.732 146.693H117.796V146.062C117.913 145.914 118.105 145.679 118.37 145.358C118.636 145.036 118.812 144.82 118.899 144.709C119.202 144.325 119.39 144.084 119.464 143.986C119.31 144.054 119.137 144.088 118.945 144.088C118.197 144.075 117.61 143.859 117.184 143.438C116.763 143.018 116.553 142.48 116.553 141.825C116.553 141.176 116.776 140.632 117.221 140.193C117.672 139.755 118.268 139.535 119.01 139.535C119.77 139.535 120.37 139.755 120.809 140.193C121.254 140.626 121.476 141.167 121.476 141.816C121.476 142.335 121.384 142.814 121.198 143.253C121.013 143.686 120.67 144.233 120.169 144.894C120.052 145.049 119.801 145.364 119.418 145.84C119.041 146.31 118.812 146.594 118.732 146.693ZM119.01 143.086C119.399 143.086 119.702 142.969 119.919 142.734C120.141 142.499 120.252 142.199 120.252 141.835C120.252 141.464 120.144 141.161 119.928 140.926C119.712 140.685 119.406 140.564 119.01 140.564C118.627 140.564 118.324 140.685 118.101 140.926C117.879 141.167 117.768 141.467 117.768 141.825C117.768 142.19 117.876 142.493 118.092 142.734C118.309 142.969 118.614 143.086 119.01 143.086ZM124.569 146.684C124.18 146.684 123.831 146.619 123.521 146.489C123.212 146.359 122.974 146.201 122.808 146.016C122.641 145.831 122.517 145.67 122.437 145.534C122.356 145.392 122.307 145.277 122.288 145.191V144.514H123.225C123.429 145.262 123.874 145.636 124.56 145.636C124.906 145.636 125.184 145.531 125.394 145.321C125.604 145.11 125.71 144.854 125.71 144.551C125.71 143.853 125.274 143.503 124.402 143.503H123.661V142.521H124.319C124.677 142.521 124.952 142.428 125.144 142.242C125.336 142.057 125.431 141.81 125.431 141.501C125.431 141.216 125.339 140.991 125.153 140.824C124.974 140.651 124.739 140.564 124.449 140.564C123.874 140.564 123.512 140.88 123.364 141.51C123.358 141.516 123.355 141.522 123.355 141.529V141.538H122.455V140.87C122.468 140.802 122.508 140.706 122.576 140.583C122.65 140.453 122.758 140.305 122.9 140.138C123.049 139.971 123.262 139.829 123.54 139.711C123.818 139.594 124.133 139.535 124.486 139.535C125.129 139.535 125.654 139.702 126.062 140.036C126.47 140.37 126.674 140.805 126.674 141.343C126.674 141.714 126.578 142.038 126.386 142.317C126.201 142.595 125.944 142.796 125.617 142.919C126.025 143.012 126.349 143.207 126.59 143.503C126.831 143.794 126.952 144.152 126.952 144.579C126.952 145.203 126.733 145.71 126.294 146.099C125.855 146.489 125.28 146.684 124.569 146.684ZM130.232 146.711C129.496 146.711 128.912 146.51 128.479 146.109C128.047 145.701 127.83 145.194 127.83 144.588C127.83 144.242 127.917 143.914 128.09 143.605C128.269 143.29 128.532 143.046 128.878 142.873C128.353 142.521 128.09 142.029 128.09 141.399C128.09 140.867 128.281 140.422 128.665 140.064C129.048 139.705 129.57 139.526 130.232 139.526C130.881 139.526 131.397 139.705 131.78 140.064C132.163 140.422 132.355 140.867 132.355 141.399C132.355 142.042 132.095 142.533 131.576 142.873C131.959 143.052 132.234 143.303 132.401 143.624C132.568 143.945 132.651 144.267 132.651 144.588C132.651 145.194 132.432 145.701 131.993 146.109C131.56 146.51 130.973 146.711 130.232 146.711ZM129.518 142.15C129.691 142.335 129.929 142.428 130.232 142.428C130.534 142.428 130.769 142.335 130.936 142.15C131.109 141.958 131.196 141.723 131.196 141.445C131.196 141.186 131.109 140.966 130.936 140.787C130.769 140.608 130.534 140.518 130.232 140.518C129.929 140.518 129.691 140.608 129.518 140.787C129.351 140.966 129.267 141.186 129.267 141.445C129.267 141.723 129.351 141.958 129.518 142.15ZM129.397 145.358C129.595 145.568 129.873 145.673 130.232 145.673C130.59 145.673 130.868 145.568 131.066 145.358C131.27 145.141 131.372 144.876 131.372 144.56C131.372 144.233 131.27 143.964 131.066 143.754C130.868 143.537 130.59 143.429 130.232 143.429C129.873 143.429 129.595 143.537 129.397 143.754C129.199 143.964 129.1 144.233 129.1 144.56C129.1 144.876 129.199 145.141 129.397 145.358Z" fill="#F3E7C8"/>
<path d="M33.0782 94.9544C32.2514 95.4505 31.8655 96.2773 31.8655 98.2067V129.462C31.8655 131.391 32.2514 132.218 33.0782 132.714C33.0782 132.824 33.0782 133.1 33.0782 133.1H26.2429C26.2429 133.1 26.2429 132.824 26.2429 132.714C27.1248 132.218 27.5107 131.391 27.5107 129.462V110.444H8.32759V129.462C8.32759 131.391 8.71346 132.218 9.54032 132.714C9.54032 132.824 9.54032 133.1 9.54032 133.1H2.70496C2.70496 133.1 2.70496 132.824 2.70496 132.714C3.58694 132.218 3.97281 131.391 3.97281 129.462V98.2067C3.97281 96.2773 3.58694 95.4505 2.70496 94.9544C2.70496 94.8441 2.70496 94.5134 2.70496 94.5134H9.54032C9.54032 94.5134 9.54032 94.8441 9.54032 94.9544C8.71346 95.4505 8.32759 96.2773 8.32759 98.2067V110.058H27.5107V98.2067C27.5107 96.2773 27.1248 95.4505 26.2429 94.9544C26.2429 94.8441 26.2429 94.5134 26.2429 94.5134H33.0782C33.0782 94.5134 33.0782 94.8441 33.0782 94.9544ZM43.0479 129.462C43.0479 131.391 43.4338 132.218 44.3157 132.714C44.3157 132.824 44.3157 133.1 44.3157 133.1H37.4804C37.4804 133.1 37.4804 132.824 37.4804 132.714C38.3072 132.218 38.6931 131.391 38.6931 129.462V110.83C38.6931 108.901 38.5277 108.349 37.4804 108.184C37.4804 108.074 37.4804 107.798 37.4804 107.798L42.662 106.586H43.0479V129.462ZM40.7327 102.12C39.2995 102.12 38.1419 100.963 38.1419 99.5296C38.1419 98.0964 39.2995 96.9388 40.7327 96.9388C42.1659 96.9388 43.3235 98.0964 43.3235 99.5296C43.3235 100.963 42.1659 102.12 40.7327 102.12ZM53.7604 129.462C53.7604 131.391 54.1463 132.218 54.9732 132.714C54.9732 132.824 54.9732 133.1 54.9732 133.1H48.1929C48.1929 133.1 48.1929 132.824 48.1929 132.714C49.0198 132.218 49.4057 131.391 49.4057 129.462V97.6003C49.4057 95.671 49.2403 95.1197 48.1929 94.9544C48.1929 94.8441 48.1929 94.5134 48.1929 94.5134L53.3746 93.3558H53.7604V129.462ZM64.4192 129.462C64.4192 131.391 64.805 132.218 65.6319 132.714C65.6319 132.824 65.6319 133.1 65.6319 133.1H58.8516C58.8516 133.1 58.8516 132.824 58.8516 132.714C59.6785 132.218 60.0644 131.391 60.0644 129.462V97.6003C60.0644 95.671 59.899 95.1197 58.8516 94.9544C58.8516 94.8441 58.8516 94.5134 58.8516 94.5134L64.0333 93.3558H64.4192V129.462ZM98.0904 93.9621C102.335 93.9621 106.965 96.6081 110.218 99.1438L108.564 104.877H108.178C105.036 97.4901 101.012 94.6787 96.6572 94.6787C91.1999 94.6787 88.0578 97.7657 87.7271 101.073C86.6797 112.098 110.328 108.46 110.328 122.241C110.328 128.8 104.43 133.431 96.602 133.431C90.0423 133.431 85.9631 131.226 81.6635 127.974L83.3172 121.689H83.7031C86.5144 127.312 91.6409 132.328 98.8621 132.328C103.548 132.328 107.461 129.297 107.902 125.824C109.336 114.082 85.6324 117.831 85.6324 103.995C85.6324 99.5296 89.2154 93.9621 98.0904 93.9621ZM133.705 123.343L133.98 123.453C132.933 128.635 130.618 133.431 124.83 133.431C119.924 133.431 116.892 130.234 116.892 123.729V107.026H113.64V106.586C118.325 106.586 118.711 101.679 118.711 99.0335H123.066C123.066 103.278 118.876 106.42 115.569 106.586H127.751V107.026H121.247V124.556C121.247 129.352 122.57 133.045 127.255 132.439C130.893 131.942 132.712 127.588 133.705 123.343ZM157.994 132.714C157.994 132.824 157.994 133.1 157.994 133.1H152.427V125.383C150.993 130.234 147.962 133.431 142.67 133.431C138.15 133.431 133.74 131.281 133.023 127.312C132.086 121.689 135.448 118.382 139.693 116.618C138.26 113.421 139.969 106.586 147.355 106.586C151.93 106.586 156.781 109.011 156.781 115.791V129.462C156.781 131.391 157.167 132.218 157.994 132.714ZM146.859 107.137C141.898 107.137 138.591 111.933 140.244 116.398C143.221 115.295 146.528 114.909 149.119 114.909C150.387 114.909 151.489 115.13 152.427 115.405V115.019C152.427 110.83 150.773 107.137 146.859 107.137ZM143.993 132.714C148.788 132.439 151.324 128.359 152.427 124.391V115.901C152.151 115.791 150.828 115.405 149.119 115.405C143.111 115.405 134.952 118.382 137.323 128.084C138.039 131.061 141.236 132.88 143.993 132.714ZM180.808 123.343L181.083 123.453C180.036 128.635 177.721 133.431 171.933 133.431C167.027 133.431 163.995 130.234 163.995 123.729V107.026H160.743V106.586C165.428 106.586 165.814 101.679 165.814 99.0335H170.169C170.169 103.278 165.979 106.42 162.672 106.586H174.854V107.026H168.35V124.556C168.35 129.352 169.673 133.045 174.358 132.439C177.996 131.942 179.815 127.588 180.808 123.343ZM187.21 129.462C187.21 131.391 187.596 132.218 188.478 132.714C188.478 132.824 188.478 133.1 188.478 133.1H181.642C181.642 133.1 181.642 132.824 181.642 132.714C182.469 132.218 182.855 131.391 182.855 129.462V110.83C182.855 108.901 182.69 108.349 181.642 108.184C181.642 108.074 181.642 107.798 181.642 107.798L186.824 106.586H187.21V129.462ZM184.895 102.12C183.461 102.12 182.304 100.963 182.304 99.5296C182.304 98.0964 183.461 96.9388 184.895 96.9388C186.328 96.9388 187.485 98.0964 187.485 99.5296C187.485 100.963 186.328 102.12 184.895 102.12ZM207.293 106.586C214.68 106.586 221.074 111.216 221.074 118.823C221.074 127.643 213.522 133.431 206.136 133.431C198.694 133.431 192.355 128.911 192.355 121.193C192.355 112.098 199.907 106.586 207.293 106.586ZM210.38 132.439C216.664 130.62 218.373 123.729 216.444 117.059C214.515 110.444 209.333 105.759 203.049 107.578C196.765 109.397 195.056 116.287 196.985 122.957C198.915 129.572 204.096 134.313 210.38 132.439ZM250.611 129.462C250.831 131.446 251.327 132.218 252.154 132.714C252.154 132.824 252.154 133.1 252.154 133.1H245.319C245.319 133.1 245.319 132.824 245.319 132.714C246.201 132.218 246.421 131.281 246.256 129.462C246.091 127.643 245.264 118.327 244.988 115.46C244.602 111.326 242.563 106.641 237.822 107.578C231.648 108.79 230.491 120.311 230.491 124.942V129.462C230.491 131.391 230.877 132.218 231.759 132.714C231.759 132.824 231.759 133.1 231.759 133.1H224.923C224.923 133.1 224.923 132.824 224.923 132.714C225.75 132.218 226.136 131.391 226.136 129.462V110.83C226.136 108.901 225.97 108.349 224.923 108.184C224.923 108.074 224.923 107.798 224.923 107.798L230.105 106.586H230.491V120.256C231.207 114.082 233.081 106.586 240.248 106.586C244.768 106.586 248.626 109.672 249.288 116.287C249.839 121.634 250.39 127.422 250.611 129.462Z" fill="#F3E7C8"/>
<path d="M114.383 91.8307C114.335 91.8307 114.286 91.7823 114.238 91.6612C114.117 91.3464 114.069 90.9832 114.069 90.5957C114.069 85.583 122.181 74.0563 124.384 70.7629C121.769 70.2786 118.718 69.6732 115.885 69.6732C113.681 69.6732 111.598 70.0365 109.952 71.0778L109.831 71.1262C109.758 71.1262 109.734 71.0778 109.734 71.0293C109.734 70.9809 109.782 70.9082 109.855 70.8598C111.671 69.7217 113.947 69.3584 116.345 69.3584C119.13 69.3584 122.084 69.867 124.675 70.3271C125.547 69.0678 127.436 66.501 128.428 65.2175C128.525 65.1207 128.646 65.0722 128.768 65.0722C128.961 65.0722 129.155 65.1933 129.155 65.3386C129.155 65.387 129.131 65.4597 129.082 65.5081C127.944 67.0095 126.297 69.2858 125.523 70.4966C126.83 70.7145 128.38 71.0778 129.954 71.2715C132.303 68.3656 134.265 67.3969 135.548 67.3969C136.371 67.3969 136.952 67.7844 137.195 68.3171C137.291 68.5351 137.34 68.753 137.34 68.9952C137.34 69.6975 136.928 70.4724 136.129 70.9809C135.16 71.6105 133.635 71.8527 131.964 71.8527C131.407 71.8527 130.85 71.8284 130.293 71.78C127.436 75.5092 124.336 80.4735 122.641 83.7426C123.149 83.2341 126.879 79.6502 128.065 79.6502C128.259 79.6502 128.404 79.747 128.428 79.9892C128.428 80.0376 127.872 81.5874 127.872 82.7498C127.872 83.452 128.065 84.009 128.671 84.0574H128.792C130.705 84.0574 133.901 80.4493 135.766 79.7955H135.79C135.887 79.7955 135.935 79.8439 135.935 79.8923C135.935 79.9407 135.911 79.965 135.839 79.9892C134.143 80.5461 130.632 84.4691 128.525 84.4691C128.38 84.4691 128.235 84.4691 128.114 84.4207C127.411 84.2027 127.193 83.2341 127.193 82.2655C127.193 81.4663 127.339 80.6672 127.484 80.2313C125.595 81.0789 122.326 84.905 121.939 84.905H121.914C121.866 84.8808 121.842 84.8323 121.842 84.7113C121.842 83.7426 124.336 79.1416 127.193 75.0007C128.017 73.7899 128.792 72.7244 129.591 71.7074C127.92 71.4652 126.37 71.1746 125.208 70.9325C122.859 74.2258 114.335 86.3579 114.335 90.7168C114.335 91.0558 114.383 91.3222 114.48 91.5643L114.504 91.6612C114.504 91.7581 114.456 91.8307 114.383 91.8307ZM132.134 71.441C135.572 71.441 136.977 70.0607 136.977 68.9952C136.977 68.3656 136.468 67.8328 135.596 67.8328C134.434 67.8328 132.666 68.7288 130.608 71.3683C131.165 71.4168 131.649 71.441 132.134 71.441ZM135.862 83.9606C135.595 83.9606 135.353 83.9121 135.135 83.8153C134.627 83.5973 134.433 83.113 134.433 82.5561C134.433 81.9991 134.627 81.4179 134.893 80.9336C135.862 79.2143 137.048 78.6815 137.799 78.6815C138.235 78.6815 138.526 78.851 138.526 79.0932C138.526 79.6986 137.46 80.6914 135.474 81.0789C135.16 81.7085 135.038 82.1928 135.038 82.5561C135.038 83.2341 135.45 83.5247 136.007 83.5489H136.128C137.944 83.5489 141.238 81.4906 143.417 79.8681L143.538 79.8197C143.587 79.8197 143.635 79.8681 143.635 79.8923C143.635 79.9407 143.611 79.9892 143.538 80.0376C141.189 81.8296 137.799 83.9606 135.862 83.9606ZM135.668 80.7157C136.806 80.6188 138.259 79.7228 138.259 79.2627C138.259 79.2143 138.235 79.1658 138.187 79.1174C138.138 79.069 138.041 79.0205 137.92 79.0205C137.436 79.0205 136.491 79.4806 135.668 80.7157Z" fill="#F3E7C8"/>
<path d="M70.5253 65.2751H70.525C68.9334 65.2751 67.9224 64.2477 67.5103 63.282L67.5102 63.2818C67.0983 62.3211 67.0477 60.8831 68.1417 59.7267L84.1916 44.0368L109.026 58.591L102.702 65.3583L70.5253 65.2751ZM84.0566 42.4105L83.9727 42.3613L83.9031 42.4293L67.1566 58.7855L67.1566 58.7854L67.1531 58.7891C64.3517 61.7506 66.4466 66.6289 70.5247 66.639L103.248 66.7224L103.304 66.7225L103.342 66.6817L111.049 58.3933L111.157 58.2768L111.02 58.1964L84.0566 42.4105Z" fill="#F3E7C8" stroke="#F3E7C8" stroke-width="0.255"/>
<path d="M140.08 58.2016L139.963 58.2701L140.039 58.3825L140.048 58.3971L140.054 58.405L140.06 58.4119L147.579 66.6857L147.617 66.7276L147.674 66.7274L180.481 66.644C184.559 66.634 186.654 61.7556 183.852 58.7942L183.852 58.7941L183.849 58.7908L167.124 42.3777L167.051 42.3065L166.966 42.3615L166.028 42.964L140.08 58.2016ZM142.072 58.6011L166.947 43.7698L182.862 59.7251C182.862 59.7255 182.863 59.7259 182.863 59.7263C183.958 60.8827 183.907 62.321 183.495 63.2819C183.083 64.2428 182.072 65.2705 180.48 65.2752L148.225 65.3585L142.072 58.6011Z" fill="#F3E7C8" stroke="#F3E7C8" stroke-width="0.255"/>
<mask id="path-6-outside-1_1_376" maskUnits="userSpaceOnUse" x="80.9717" y="16.7256" width="38" height="41" fill="black">
<rect fill="white" x="80.9717" y="16.7256" width="38" height="41"/>
<path d="M86.4908 18.9687C86.6332 18.9687 86.7755 18.9785 86.9179 18.9932L105.685 21.1406L117.04 49.9426L112.302 55.1633L85.3618 39.0646L83.1183 22.7108C82.9809 21.7196 83.2705 20.7579 83.9283 20.0023C84.5812 19.2565 85.5139 18.9638 86.4957 18.9638M86.4908 17.7256C83.7958 17.7256 81.6407 20.1151 82.0138 22.8677L84.326 39.7466L112.504 56.5862L118.296 50.2027L118.316 50.1781L106.918 21.2668L106.448 19.9919L87.0455 17.7551C86.859 17.7305 86.6774 17.7256 86.4908 17.7256Z"/>
</mask>
<path d="M86.4908 18.9687C86.6332 18.9687 86.7755 18.9785 86.9179 18.9932L105.685 21.1406L117.04 49.9426L112.302 55.1633L85.3618 39.0646L83.1183 22.7108C82.9809 21.7196 83.2705 20.7579 83.9283 20.0023C84.5812 19.2565 85.5139 18.9638 86.4957 18.9638M86.4908 17.7256C83.7958 17.7256 81.6407 20.1151 82.0138 22.8677L84.326 39.7466L112.504 56.5862L118.296 50.2027L118.316 50.1781L106.918 21.2668L106.448 19.9919L87.0455 17.7551C86.859 17.7305 86.6774 17.7256 86.4908 17.7256Z" fill="#F3E7C8"/>
<path d="M86.9179 18.9932L86.9469 18.7399L86.9441 18.7396L86.9179 18.9932ZM105.685 21.1406L105.922 21.0471L105.866 20.9046L105.714 20.8872L105.685 21.1406ZM117.04 49.9426L117.228 50.114L117.335 49.9966L117.277 49.8491L117.04 49.9426ZM112.302 55.1633L112.172 55.3822L112.351 55.4893L112.491 55.3347L112.302 55.1633ZM85.3618 39.0646L85.1091 39.0992L85.1258 39.2206L85.231 39.2835L85.3618 39.0646ZM83.1183 22.7108L83.371 22.6761L83.3709 22.6757L83.1183 22.7108ZM83.9283 20.0023L83.7365 19.8343L83.736 19.8348L83.9283 20.0023ZM82.0138 22.8677L81.7611 22.902L81.7612 22.9023L82.0138 22.8677ZM84.326 39.7466L84.0733 39.7812L84.09 39.9026L84.1952 39.9655L84.326 39.7466ZM112.504 56.5862L112.373 56.8051L112.552 56.9122L112.693 56.7575L112.504 56.5862ZM118.296 50.2027L118.485 50.374L118.49 50.3682L118.495 50.362L118.296 50.2027ZM118.316 50.1781L118.515 50.3375L118.607 50.2221L118.553 50.0846L118.316 50.1781ZM106.918 21.2668L106.678 21.3549L106.68 21.3603L106.918 21.2668ZM106.448 19.9919L106.687 19.9038L106.633 19.7566L106.477 19.7386L106.448 19.9919ZM87.0455 17.7551L87.0123 18.0079L87.0163 18.0084L87.0455 17.7551ZM86.4908 19.2237C86.6217 19.2237 86.7548 19.2327 86.8917 19.2469L86.9441 18.7396C86.7963 18.7243 86.6447 18.7137 86.4908 18.7137V19.2237ZM86.8889 19.2466L105.656 21.3939L105.714 20.8872L86.9469 18.7399L86.8889 19.2466ZM105.448 21.2341L116.802 50.0361L117.277 49.8491L105.922 21.0471L105.448 21.2341ZM116.851 49.7713L112.114 54.9919L112.491 55.3347L117.228 50.114L116.851 49.7713ZM112.433 54.9444L85.4926 38.8457L85.231 39.2835L112.172 55.3822L112.433 54.9444ZM85.6144 39.0299L83.371 22.6761L82.8657 22.7454L85.1091 39.0992L85.6144 39.0299ZM83.3709 22.6757C83.2437 21.7583 83.5108 20.8702 84.1207 20.1697L83.736 19.8348C83.0302 20.6455 82.7181 21.6809 82.8658 22.7458L83.3709 22.6757ZM84.1202 20.1702C84.7104 19.4961 85.5625 19.2188 86.4957 19.2188V18.7088C85.4653 18.7088 84.4521 19.0169 83.7365 19.8343L84.1202 20.1702ZM86.4908 17.4706C83.6434 17.4706 81.367 19.9943 81.7611 22.902L82.2665 22.8335C81.9144 20.2359 83.9482 17.9806 86.4908 17.9806V17.4706ZM81.7612 22.9023L84.0733 39.7812L84.5786 39.712L82.2664 22.8331L81.7612 22.9023ZM84.1952 39.9655L112.373 56.8051L112.634 56.3673L84.4568 39.5277L84.1952 39.9655ZM112.693 56.7575L118.485 50.374L118.107 50.0313L112.315 56.4148L112.693 56.7575ZM118.495 50.362L118.515 50.3375L118.117 50.0188L118.097 50.0433L118.495 50.362ZM118.553 50.0846L107.155 21.1732L106.68 21.3603L118.079 50.2717L118.553 50.0846ZM107.157 21.1786L106.687 19.9038L106.209 20.0801L106.678 21.3549L107.157 21.1786ZM106.477 19.7386L87.0747 17.5017L87.0163 18.0084L106.419 20.2453L106.477 19.7386ZM87.0788 17.5022C86.8758 17.4755 86.6812 17.4706 86.4908 17.4706V17.9806C86.6735 17.9806 86.8422 17.9855 87.0123 18.0079L87.0788 17.5022Z" fill="#F3E7C8" mask="url(#path-6-outside-1_1_376)"/>
<mask id="path-8-outside-2_1_376" maskUnits="userSpaceOnUse" x="107.326" y="3" width="36" height="46" fill="black">
<rect fill="white" x="107.326" y="3" width="36" height="46"/>
<path d="M125.594 5.11376C126.517 5.11376 127.381 5.47689 128.029 6.13438L141.332 19.6227L130.842 46.3051L129.777 45.1225C128.711 43.94 127.185 43.2581 125.589 43.2581C124.004 43.2581 122.482 43.9302 121.412 45.1078L120.332 46.2952L109.831 19.6227L123.159 6.13438C123.807 5.47689 124.671 5.11867 125.594 5.11867M125.594 4.00491C124.426 4.00491 123.257 4.45141 122.374 5.34933L108.326 18.784L108.54 19.3528L119.959 48.356L119.978 48.3315L122.236 45.8438C123.135 44.8527 124.362 44.3571 125.589 44.3571C126.821 44.3571 128.053 44.8576 128.952 45.8536L131.195 48.3462L131.215 48.3707L142.813 18.9182L128.814 5.34933C127.926 4.45141 126.758 4 125.589 4L125.594 4.00491Z"/>
</mask>
<path d="M125.594 5.11376C126.517 5.11376 127.381 5.47689 128.029 6.13438L141.332 19.6227L130.842 46.3051L129.777 45.1225C128.711 43.94 127.185 43.2581 125.589 43.2581C124.004 43.2581 122.482 43.9302 121.412 45.1078L120.332 46.2952L109.831 19.6227L123.159 6.13438C123.807 5.47689 124.671 5.11867 125.594 5.11867M125.594 4.00491C124.426 4.00491 123.257 4.45141 122.374 5.34933L108.326 18.784L108.54 19.3528L119.959 48.356L119.978 48.3315L122.236 45.8438C123.135 44.8527 124.362 44.3571 125.589 44.3571C126.821 44.3571 128.053 44.8576 128.952 45.8536L131.195 48.3462L131.215 48.3707L142.813 18.9182L128.814 5.34933C127.926 4.45141 126.758 4 125.589 4L125.594 4.00491Z" fill="#F3E7C8"/>
<path d="M128.029 6.13438L127.847 6.31337L127.847 6.31344L128.029 6.13438ZM141.332 19.6227L141.57 19.716L141.63 19.5617L141.514 19.4437L141.332 19.6227ZM130.842 46.3051L130.652 46.4757L130.928 46.782L131.079 46.3984L130.842 46.3051ZM129.777 45.1225L129.587 45.2932L129.777 45.1225ZM121.412 45.1078L121.6 45.2794L121.6 45.2793L121.412 45.1078ZM120.332 46.2952L120.094 46.3886L120.245 46.77L120.52 46.4668L120.332 46.2952ZM109.831 19.6227L109.65 19.4435L109.533 19.5616L109.594 19.7161L109.831 19.6227ZM123.159 6.13438L123.341 6.31361L123.341 6.31337L123.159 6.13438ZM125.594 4.00491V4.25991H126.21L125.774 3.82455L125.594 4.00491ZM122.374 5.34933L122.55 5.5337L122.556 5.52819L122.374 5.34933ZM108.326 18.784L108.15 18.5997L108.028 18.7161L108.088 18.8738L108.326 18.784ZM108.54 19.3528L108.302 19.4427L108.303 19.4463L108.54 19.3528ZM119.959 48.356L119.721 48.4494L119.882 48.8585L120.157 48.5156L119.959 48.356ZM119.978 48.3315L119.789 48.1601L119.784 48.1659L119.779 48.1719L119.978 48.3315ZM122.236 45.8438L122.425 46.0152L122.425 46.0151L122.236 45.8438ZM128.952 45.8536L129.141 45.683L129.141 45.6828L128.952 45.8536ZM131.195 48.3462L131.394 48.1867L131.39 48.181L131.385 48.1757L131.195 48.3462ZM131.215 48.3707L131.016 48.5303L131.291 48.8732L131.452 48.4642L131.215 48.3707ZM142.813 18.9182L143.05 19.0116L143.113 18.8534L142.991 18.7351L142.813 18.9182ZM128.814 5.34933L128.633 5.52873L128.637 5.53243L128.814 5.34933ZM125.589 4V3.745H124.973L125.409 4.18036L125.589 4ZM125.594 5.36876C126.448 5.36876 127.247 5.70429 127.847 6.31337L128.211 5.95538C127.515 5.24949 126.586 4.85876 125.594 4.85876V5.36876ZM127.847 6.31344L141.151 19.8018L141.514 19.4437L128.21 5.95531L127.847 6.31344ZM141.095 19.5294L130.605 46.2118L131.079 46.3984L141.57 19.716L141.095 19.5294ZM131.031 46.1344L129.966 44.9519L129.587 45.2932L130.652 46.4757L131.031 46.1344ZM129.966 44.9519C128.853 43.7158 127.257 43.0031 125.589 43.0031V43.5131C127.112 43.5131 128.57 44.1643 129.587 45.2932L129.966 44.9519ZM125.589 43.0031C123.932 43.0031 122.341 43.7055 121.223 44.9363L121.6 45.2793C122.622 44.1549 124.075 43.5131 125.589 43.5131V43.0031ZM121.223 44.9362L120.143 46.1237L120.52 46.4668L121.6 45.2794L121.223 44.9362ZM120.569 46.2018L110.069 19.5293L109.594 19.7161L120.094 46.3886L120.569 46.2018ZM110.013 19.802L123.341 6.31361L122.978 5.95515L109.65 19.4435L110.013 19.802ZM123.341 6.31337C123.94 5.70495 124.739 5.37367 125.594 5.37367V4.86367C124.604 4.86367 123.674 5.24882 122.978 5.95538L123.341 6.31337ZM125.594 3.74991C124.361 3.74991 123.126 4.22144 122.192 5.17047L122.556 5.52819C123.389 4.68138 124.491 4.25991 125.594 4.25991V3.74991ZM122.198 5.16504L108.15 18.5997L108.502 18.9683L122.55 5.53361L122.198 5.16504ZM108.088 18.8738L108.302 19.4426L108.779 19.263L108.565 18.6942L108.088 18.8738ZM108.303 19.4463L119.721 48.4494L120.196 48.2626L108.777 19.2594L108.303 19.4463ZM120.157 48.5156L120.177 48.4911L119.779 48.1719L119.76 48.1964L120.157 48.5156ZM120.167 48.5029L122.425 46.0152L122.048 45.6724L119.789 48.1601L120.167 48.5029ZM122.425 46.0151C123.273 45.0796 124.431 44.6121 125.589 44.6121V44.1021C124.293 44.1021 122.996 44.6257 122.047 45.6726L122.425 46.0151ZM125.589 44.6121C126.752 44.6121 127.915 45.0843 128.762 46.0244L129.141 45.6828C128.192 44.6309 126.89 44.1021 125.589 44.1021V44.6121ZM128.762 46.0242L131.006 48.5168L131.385 48.1757L129.141 45.683L128.762 46.0242ZM130.996 48.5058L131.016 48.5303L131.414 48.2112L131.394 48.1867L130.996 48.5058ZM131.452 48.4642L143.05 19.0116L142.576 18.8247L130.978 48.2773L131.452 48.4642ZM142.991 18.7351L128.992 5.16622L128.637 5.53243L142.636 19.1013L142.991 18.7351ZM128.996 5.16996C128.058 4.22199 126.823 3.745 125.589 3.745V4.255C126.692 4.255 127.794 4.68083 128.633 5.52869L128.996 5.16996ZM125.409 4.18036L125.414 4.18527L125.774 3.82455L125.769 3.81964L125.409 4.18036Z" fill="#F3E7C8" mask="url(#path-8-outside-2_1_376)"/>
<mask id="path-10-outside-3_1_376" maskUnits="userSpaceOnUse" x="131.859" y="16.7129" width="38" height="41" fill="black">
<rect fill="white" x="131.859" y="16.7129" width="38" height="41"/>
<path d="M164.694 18.8218C165.676 18.8218 166.609 19.2487 167.262 19.9945C167.919 20.7501 168.204 21.7118 168.072 22.703L165.833 39.0568L165.489 39.2629L138.863 55.1947L134.146 49.9593L145.51 21.1328L164.277 18.8512C164.419 18.8316 164.562 18.8267 164.704 18.8267M164.694 17.7129C164.508 17.7129 164.326 17.7227 164.135 17.7472L144.759 19.9234L132.859 50.1948L132.884 50.2194L138.637 56.6029L138.647 56.6177L166.059 40.2147L166.859 39.7339L169.171 22.855C169.549 20.1024 167.389 17.7129 164.694 17.7129Z"/>
</mask>
<path d="M164.694 18.8218C165.676 18.8218 166.609 19.2487 167.262 19.9945C167.919 20.7501 168.204 21.7118 168.072 22.703L165.833 39.0568L165.489 39.2629L138.863 55.1947L134.146 49.9593L145.51 21.1328L164.277 18.8512C164.419 18.8316 164.562 18.8267 164.704 18.8267M164.694 17.7129C164.508 17.7129 164.326 17.7227 164.135 17.7472L144.759 19.9234L132.859 50.1948L132.884 50.2194L138.637 56.6029L138.647 56.6177L166.059 40.2147L166.859 39.7339L169.171 22.855C169.549 20.1024 167.389 17.7129 164.694 17.7129Z" fill="#F3E7C8"/>
<path d="M167.262 19.9945L167.454 19.8271L167.453 19.8265L167.262 19.9945ZM168.072 22.703L168.324 22.7376L168.324 22.7368L168.072 22.703ZM165.833 39.0568L165.964 39.2755L166.069 39.2125L166.086 39.0914L165.833 39.0568ZM165.489 39.2629L165.62 39.4817L165.621 39.4816L165.489 39.2629ZM138.863 55.1947L138.674 55.3654L138.814 55.5212L138.994 55.4136L138.863 55.1947ZM134.146 49.9593L133.908 49.8658L133.85 50.0127L133.956 50.13L134.146 49.9593ZM145.51 21.1328L145.479 20.8797L145.328 20.898L145.273 21.0393L145.51 21.1328ZM164.277 18.8512L164.308 19.1044L164.312 19.1038L164.277 18.8512ZM164.135 17.7472L164.163 18.0006L164.167 18.0001L164.135 17.7472ZM144.759 19.9234L144.73 19.67L144.578 19.6871L144.522 19.8301L144.759 19.9234ZM132.859 50.1948L132.622 50.1016L132.561 50.2569L132.679 50.375L132.859 50.1948ZM132.884 50.2194L133.074 50.0485L133.064 50.0393L132.884 50.2194ZM138.637 56.6029L138.85 56.4621L138.839 56.4463L138.827 56.4322L138.637 56.6029ZM138.647 56.6177L138.435 56.7586L138.569 56.9615L138.778 56.8365L138.647 56.6177ZM166.059 40.2147L166.19 40.4336L166.19 40.4333L166.059 40.2147ZM166.859 39.7339L166.99 39.9525L167.095 39.8896L167.112 39.7685L166.859 39.7339ZM169.171 22.855L168.919 22.8204L168.919 22.8204L169.171 22.855ZM164.694 19.0768C165.601 19.0768 166.465 19.4712 167.07 20.1625L167.453 19.8265C166.753 19.0262 165.751 18.5668 164.694 18.5668V19.0768ZM167.069 20.1619C167.679 20.8618 167.942 21.75 167.819 22.6692L168.324 22.7368C168.467 21.6737 168.16 20.6385 167.454 19.8271L167.069 20.1619ZM167.819 22.6684L165.58 39.0222L166.086 39.0914L168.324 22.7376L167.819 22.6684ZM165.702 38.8381L165.358 39.0442L165.621 39.4816L165.964 39.2755L165.702 38.8381ZM165.359 39.0441L138.732 54.9759L138.994 55.4136L165.62 39.4817L165.359 39.0441ZM139.053 55.024L134.335 49.7886L133.956 50.13L138.674 55.3654L139.053 55.024ZM134.383 50.0529L145.747 21.2263L145.273 21.0393L133.908 49.8658L134.383 50.0529ZM145.541 21.3859L164.308 19.1043L164.246 18.5981L145.479 20.8797L145.541 21.3859ZM164.312 19.1038C164.438 19.0865 164.567 19.0817 164.704 19.0817V18.5717C164.557 18.5717 164.401 18.5767 164.242 18.5986L164.312 19.1038ZM164.694 17.4579C164.498 17.4579 164.306 17.4682 164.102 17.4943L164.167 18.0001C164.346 17.9772 164.517 17.9679 164.694 17.9679V17.4579ZM164.106 17.4938L144.73 19.67L144.787 20.1768L164.163 18.0006L164.106 17.4938ZM144.522 19.8301L132.622 50.1016L133.097 50.2881L144.996 20.0166L144.522 19.8301ZM132.679 50.375L132.703 50.3995L133.064 50.0393L133.04 50.0147L132.679 50.375ZM132.694 50.3901L138.448 56.7737L138.827 56.4322L133.073 50.0487L132.694 50.3901ZM138.425 56.7438L138.435 56.7586L138.86 56.4768L138.85 56.4621L138.425 56.7438ZM138.778 56.8365L166.19 40.4336L165.928 39.9959L138.516 56.3989L138.778 56.8365ZM166.19 40.4333L166.99 39.9525L166.728 39.5153L165.928 39.9962L166.19 40.4333ZM167.112 39.7685L169.424 22.8896L168.919 22.8204L166.606 39.6993L167.112 39.7685ZM169.424 22.8897C169.823 19.9813 167.541 17.4579 164.694 17.4579V17.9679C167.237 17.9679 169.275 20.2236 168.919 22.8204L169.424 22.8897Z" fill="#F3E7C8" mask="url(#path-10-outside-3_1_376)"/>
</svg>
