<svg width="567" height="51" viewBox="0 0 567 51" fill="none" xmlns="http://www.w3.org/2000/svg">
<path d="M16.0597 0.682152C20.0527 0.682152 24.4086 3.17124 27.4681 5.55663L25.9124 10.9497H25.5494C22.5936 4.00094 18.8081 1.35628 14.7115 1.35628C9.57773 1.35628 6.62193 4.26022 6.31079 7.37159C5.32552 17.7428 27.5718 14.3203 27.5718 27.2843C27.5718 33.4552 22.0232 37.8111 14.6596 37.8111C8.48875 37.8111 4.6514 35.7369 0.606618 32.6774L2.1623 26.7658H2.52529C5.16996 32.0551 9.99258 36.774 16.7857 36.774C21.1935 36.774 24.8753 33.9219 25.2901 30.655C26.6384 19.6096 4.34026 23.1359 4.34026 10.12C4.34026 5.91962 7.71091 0.682152 16.0597 0.682152ZM36.4432 34.0775C36.4432 35.8925 36.8062 36.6703 37.6359 37.137C37.6359 37.2407 37.6359 37.5 37.6359 37.5H31.2058C31.2058 37.5 31.2058 37.2407 31.2058 37.137C31.9836 36.6703 32.3466 35.8925 32.3466 34.0775V16.5501C32.3466 14.7352 32.191 14.2166 31.2058 14.061C31.2058 13.9573 31.2058 13.698 31.2058 13.698L36.0803 12.5572H36.4432V34.0775ZM34.2653 8.35686C32.917 8.35686 31.8281 7.26788 31.8281 5.91962C31.8281 4.57136 32.917 3.48238 34.2653 3.48238C35.6135 3.48238 36.7025 4.57136 36.7025 5.91962C36.7025 7.26788 35.6135 8.35686 34.2653 8.35686ZM68.1448 36.0999C71.2561 36.048 72.4488 37.8111 72.4488 40.0928C72.4488 44.1894 67.2632 46.8341 62.8554 46.8341C59.1218 46.8341 57.3068 44.8117 56.0623 43.1005C53.6769 44.5524 51.0841 45.9007 48.6469 46.0563C45.8985 46.2637 43.8242 45.2784 43.7724 42.893C43.6687 39.7298 48.6469 38.0186 52.2768 37.6556C46.2096 36.9296 41.2833 32.8848 41.2833 26.2991C41.2833 17.7428 48.4394 12.5572 55.3882 12.5572C57.4624 12.5572 59.4329 12.9721 61.196 13.698L70.0634 11.1052L70.3746 13.698L62.0257 14.061C65.7594 15.876 68.3522 19.3504 68.3522 24.0693C68.3522 32.3662 61.2479 37.8111 54.2473 37.8111C54.0917 37.8111 53.9362 37.8111 53.7288 37.7593C50.3063 37.9148 46.3133 39.1075 46.5726 42.2189C46.6763 43.9302 47.5579 45.1747 49.4766 45.1747C52.1212 45.2266 55.1289 43.2042 58.4477 41.1818C62.285 38.9001 65.5001 36.2036 68.1448 36.0999ZM45.6911 27.9585C47.506 34.1812 52.3805 38.6408 58.2921 36.8777C64.1518 35.1665 65.8112 28.6845 63.9963 22.4099C62.1813 16.1871 57.3068 11.7794 51.3952 13.4906C45.4836 15.2019 43.8761 21.6839 45.6911 27.9585ZM69.2856 40.9744C69.3893 38.589 68.767 36.8259 66.6928 37.137C65.0852 37.3444 61.7665 39.5742 58.7588 41.4411C57.981 41.9078 57.2031 42.3745 56.4253 42.8412C57.4105 44.2932 59.0181 46.4193 62.8554 46.4711C66.8484 46.523 69.0782 44.3969 69.2856 40.9744ZM98.6686 34.0775C98.876 35.9443 99.3427 36.6703 100.121 37.137C100.121 37.2407 100.121 37.5 100.121 37.5H93.6904C93.6904 37.5 93.6904 37.2407 93.6904 37.137C94.5201 36.6703 94.7275 35.7887 94.5719 34.0775C94.4164 32.3662 93.6385 23.6026 93.3792 20.906C93.0163 17.0168 91.0976 12.6091 86.638 13.4906C80.8301 14.6314 79.7411 25.4694 79.7411 29.8253V34.0775C79.7411 35.8925 80.1041 36.6703 80.9338 37.137C80.9338 37.2407 80.9338 37.5 80.9338 37.5H74.5036C74.5036 37.5 74.5036 37.2407 74.5036 37.137C75.2815 36.6703 75.6445 35.8925 75.6445 34.0775V16.5501C75.6445 14.7352 75.4889 14.2166 74.5036 14.061C74.5036 13.9573 74.5036 13.698 74.5036 13.698L79.3781 12.5572H79.7411V25.4175C80.4152 19.6096 82.1783 12.5572 88.9196 12.5572C93.1718 12.5572 96.8018 15.4611 97.424 21.6839C97.9426 26.7139 98.4611 32.1588 98.6686 34.0775ZM138.763 1.20071H145.193C145.193 1.20071 145.193 1.51185 145.193 1.61556C143.533 2.49712 143.015 5.19364 143.015 7.42345V25.3138C143.015 32.5218 137.881 37.8111 130.569 37.8111C122.843 37.8111 116.361 33.5071 116.361 24.0693V4.67507C116.361 2.80825 115.998 2.08227 115.168 1.61556C115.168 1.51185 115.168 1.20071 115.168 1.20071H121.598C121.598 1.20071 121.598 1.51185 121.598 1.61556C120.82 2.08227 120.457 2.80825 120.457 4.67507V24.0693C120.457 32.6255 124.865 37.8111 132.384 37.1889C138.763 36.6703 142.652 31.1217 142.652 25.3138V7.99387C142.652 5.14178 141.304 1.97855 138.763 1.61556C138.763 1.51185 138.763 1.20071 138.763 1.20071ZM164.92 12.5572C169.172 12.5572 174.357 16.1871 174.565 22.7729C174.876 35.6332 162.949 37.8111 157.141 37.8111C156 37.8111 154.963 37.6037 154.082 37.3444V46.2637C154.082 48.0786 154.237 48.5972 155.223 48.7528C155.223 48.8565 155.223 49.1158 155.223 49.1158L150.348 50.2566H149.985V16.5501C149.985 14.7352 149.83 14.2166 148.844 14.061C148.844 13.9573 148.844 13.698 148.844 13.698L153.719 12.5572H154.082V26.7658C155.015 20.7505 157.66 12.5572 164.92 12.5572ZM157.193 37.5C162.171 37.4481 171.246 35.2702 170.52 22.0469C170.261 17.5354 167.098 12.6091 162.638 13.4906C156.83 14.6314 154.082 25.4694 154.082 29.8253V37.0333C154.341 37.137 155.534 37.5519 157.193 37.5ZM225.376 27.0769L225.739 27.2325C222.939 33.0404 217.961 37.8111 208.782 37.8111C198.567 37.8111 189.699 29.5142 189.699 19.2466C189.699 8.97913 198.981 0.682152 209.249 0.682152C214.849 0.682152 218.22 2.13412 222.628 5.03807L221.072 10.9497H220.709C216.924 4.93435 210.753 0.474727 203.96 1.9267C195.092 3.84537 191.877 14.3203 194.677 23.4988C197.478 32.6255 204.945 37.3963 214.072 35.9962C218.739 35.322 222.731 32.2625 225.376 27.0769ZM242.91 12.5572C249.858 12.5572 255.874 16.9131 255.874 24.0693C255.874 32.3662 248.769 37.8111 241.821 37.8111C234.82 37.8111 228.857 33.5589 228.857 26.2991C228.857 17.7428 235.961 12.5572 242.91 12.5572ZM245.814 36.8777C251.725 35.1665 253.333 28.6845 251.518 22.4099C249.703 16.1871 244.828 11.7794 238.917 13.4906C233.005 15.2019 231.398 21.6839 233.213 27.9585C235.027 34.1812 239.902 38.6408 245.814 36.8777ZM275.57 12.5572C279.822 12.5572 285.007 16.1871 285.215 22.7729C285.526 35.6332 273.599 37.8111 267.791 37.8111C266.65 37.8111 265.613 37.6037 264.732 37.3444V46.2637C264.732 48.0786 264.887 48.5972 265.873 48.7528C265.873 48.8565 265.873 49.1158 265.873 49.1158L260.998 50.2566H260.635V16.5501C260.635 14.7352 260.48 14.2166 259.494 14.061C259.494 13.9573 259.494 13.698 259.494 13.698L264.369 12.5572H264.732V26.7658C265.665 20.7505 268.31 12.5572 275.57 12.5572ZM267.843 37.5C272.821 37.4481 281.896 35.2702 281.17 22.0469C280.911 17.5354 277.748 12.6091 273.288 13.4906C267.48 14.6314 264.732 25.4694 264.732 29.8253V37.0333C264.991 37.137 266.184 37.5519 267.843 37.5ZM311.161 12.9721C308.931 15.2537 307.116 17.7947 305.197 22.5654C305.197 22.5654 301.049 32.8848 299.182 37.5C297.315 42.1671 294.982 46.0563 290.885 46.0563C288.085 46.0563 286.062 44.7599 284.766 42.3745L288.811 38.6927L289.122 38.952C288.603 41.8559 289.174 45.8488 292.026 45.5377C294.722 45.2266 296.848 41.8041 298.56 37.9667L291.922 22.358C289.744 17.2761 288.655 15.0463 286.166 12.9721V12.5572H294.1V12.9721C292.804 14.3722 293.219 15.7723 294.411 18.6762L300.582 33.0922L304.834 22.5136C306.753 17.7428 307.375 14.8907 305.042 12.9721V12.5572H311.161V12.9721ZM352.128 20.2319H361.359C361.359 20.2319 361.359 20.543 361.359 20.6468C360.581 21.1135 360.218 21.8395 360.218 23.7063V29.3067C358.818 32.3144 353.84 37.8111 343.676 37.8111C333.46 37.8111 325.163 29.5142 325.163 19.2466C325.163 8.97913 334.445 0.682152 344.713 0.682152C350.313 0.682152 353.684 2.13412 358.092 5.03807L356.536 10.9497H356.173C352.388 4.93435 346.217 0.474727 339.424 1.9267C330.556 3.84537 327.341 14.3203 330.141 23.4988C332.942 32.6255 339.735 37.7593 348.965 36.5666C352.076 36.1517 354.41 34.6998 356.121 32.8329V25.9361C356.121 22.7729 354.669 20.8023 352.128 20.6468C352.128 20.3356 352.128 20.2319 352.128 20.2319ZM378.779 12.5572C385.727 12.5572 391.743 16.9131 391.743 24.0693C391.743 32.3662 384.638 37.8111 377.69 37.8111C370.689 37.8111 364.726 33.5589 364.726 26.2991C364.726 17.7428 371.83 12.5572 378.779 12.5572ZM381.683 36.8777C387.594 35.1665 389.202 28.6845 387.387 22.4099C385.572 16.1871 380.697 11.7794 374.786 13.4906C368.874 15.2019 367.267 21.6839 369.082 27.9585C370.897 34.1812 375.771 38.6408 381.683 36.8777ZM415.38 20.7505C418.336 21.5283 421.032 24.536 420.617 29.2549C420.306 32.9367 417.039 37.8111 409.676 37.8111C402.52 37.8111 395.623 34.2849 395.415 25.7287C395.156 16.7576 403.297 12.8683 409.002 12.5572C413.409 12.3498 419.476 14.4759 420.202 20.7505C419.736 20.7505 416.521 20.7505 416.521 20.7505H415.38ZM406.668 13.1795C403.142 13.8536 400.86 16.8094 399.927 20.3356H416.469C415.795 15.8241 411.75 12.1942 406.668 13.1795ZM420.151 29.3586C420.773 23.9656 417.195 20.7505 413.254 20.7505H399.823C399.149 23.4988 399.304 26.5584 400.186 29.0475C402.105 34.4923 405.994 36.8777 411.283 36.6703C415.743 36.4629 419.632 33.4034 420.151 29.3586ZM434.3 12.5572C436.996 12.5572 440.522 14.2685 442.597 15.876L441.559 20.6468H441.3C439.693 16.239 436.374 13.0239 433.418 13.0239C429.892 13.0239 427.921 14.9944 427.662 17.1205C426.936 24.0693 444.412 22.2024 443.841 30.655C443.53 34.7516 439.693 37.8111 433.885 37.8111C429.684 37.8111 426.573 36.411 423.773 34.3368L424.862 29.1512H425.121C426.884 32.7811 430.773 37.0852 435.389 37.0852C439.122 37.0852 441.922 35.1665 442.234 32.9367C443.219 26.1435 425.121 29.1512 426.366 18.9874C426.78 15.6167 428.647 12.5572 434.3 12.5572ZM488.047 1.61556C487.269 2.08227 486.906 2.86011 486.906 4.67507V34.0775C486.906 35.8925 487.269 36.6703 488.047 37.137C488.047 37.2407 488.047 37.5 488.047 37.5H481.617C481.617 37.5 481.617 37.2407 481.617 37.137C482.447 36.6703 482.81 35.8925 482.81 34.0775V16.1871H464.764V34.0775C464.764 35.8925 465.127 36.6703 465.905 37.137C465.905 37.2407 465.905 37.5 465.905 37.5H459.475C459.475 37.5 459.475 37.2407 459.475 37.137C460.304 36.6703 460.667 35.8925 460.667 34.0775V4.67507C460.667 2.86011 460.304 2.08227 459.475 1.61556C459.475 1.51185 459.475 1.20071 459.475 1.20071H465.905C465.905 1.20071 465.905 1.51185 465.905 1.61556C465.127 2.08227 464.764 2.86011 464.764 4.67507V15.8241H482.81V4.67507C482.81 2.86011 482.447 2.08227 481.617 1.61556C481.617 1.51185 481.617 1.20071 481.617 1.20071H488.047C488.047 1.20071 488.047 1.51185 488.047 1.61556ZM512.205 20.7505C515.161 21.5283 517.857 24.536 517.442 29.2549C517.131 32.9367 513.864 37.8111 506.501 37.8111C499.345 37.8111 492.448 34.2849 492.24 25.7287C491.981 16.7576 500.122 12.8683 505.827 12.5572C510.234 12.3498 516.302 14.4759 517.028 20.7505C516.561 20.7505 513.346 20.7505 513.346 20.7505H512.205ZM503.493 13.1795C499.967 13.8536 497.685 16.8094 496.752 20.3356H513.294C512.62 15.8241 508.575 12.1942 503.493 13.1795ZM516.976 29.3586C517.598 23.9656 514.02 20.7505 510.079 20.7505H496.648C495.974 23.4988 496.13 26.5584 497.011 29.0475C498.93 34.4923 502.819 36.8777 508.108 36.6703C512.568 36.4629 516.457 33.4034 516.976 29.3586ZM533.861 12.5572C536.661 12.5572 538.269 13.5425 540.032 15.6167L536.869 20.0763L536.506 19.8689C536.402 16.9131 534.95 13.0758 532.15 13.4906C527.068 14.2685 526.394 27.6473 526.394 32.0551V34.0775C526.394 35.8925 526.757 36.6703 527.534 37.137C527.534 37.2407 527.534 37.5 527.534 37.5H521.104C521.104 37.5 521.104 37.2407 521.104 37.137C521.934 36.6703 522.297 35.8925 522.297 34.0775V16.5501C522.297 14.7352 522.141 14.2166 521.104 14.061C521.104 13.9573 521.104 13.698 521.104 13.698L525.979 12.5572H526.394V26.4546C526.912 20.1801 528.364 12.5572 533.861 12.5572ZM561.124 20.7505C564.08 21.5283 566.776 24.536 566.361 29.2549C566.05 32.9367 562.783 37.8111 555.42 37.8111C548.264 37.8111 541.367 34.2849 541.159 25.7287C540.9 16.7576 549.041 12.8683 554.746 12.5572C559.153 12.3498 565.221 14.4759 565.947 20.7505C565.48 20.7505 562.265 20.7505 562.265 20.7505H561.124ZM552.412 13.1795C548.886 13.8536 546.604 16.8094 545.671 20.3356H562.213C561.539 15.8241 557.494 12.1942 552.412 13.1795ZM565.895 29.3586C566.517 23.9656 562.939 20.7505 558.998 20.7505H545.567C544.893 23.4988 545.049 26.5584 545.93 29.0475C547.849 34.4923 551.738 36.8777 557.027 36.6703C561.487 36.4629 565.376 33.4034 565.895 29.3586Z" fill="#F3E7C8"/>
</svg>
